# xmcd CD database file
#
# Track frame offsets:
#	150
#	16615
#	34594
#	51662
#	67014
#	89829
#	129312
#	191203
#	220183
#	240985
#	267418
#	298150
#
# Disc length: 4362 seconds
#
# Revision: 0
# Processed by: cddbd v1.5.2PL0 Copyright (c) Steve Scherf et al.
# Submitted via: CDex 1.51
#
DISCID=b711080c
DTITLE=CROSSROAD GUITAR FESTIVAL(June 2004) - Eric Clapton  - His Band
DYEAR=2004
DGENRE=Blues
TTITLE0=Me And The Devil Blues
TTITLE1=They're Red Hot
TTITLE2=Milkcow's Calf Blues
TTITLE3=If I Had Possession Over Judgement Day
TTITLE4=Kind Hearted Woman Blues
TTITLE5=I Shot The Sheriff
TTITLE6=Have You Ever Loved A Woman
TTITLE7=Badge
TTITLE8=Wonderful Tonight
TTITLE9=Layla
TTITLE10=Cocaine
TTITLE11=Cause We're Ended As Lovers(Feat. Jeff Beck) 
EXTD=YEAR: 2004
EXTT0=
EXTT1=
EXTT2=
EXTT3=
EXTT4=
EXTT5=
EXTT6=
EXTT7=
EXTT8=
EXTT9=
EXTT10=
EXTT11=
PLAYORDER=
